<svg xmlns="http://www.w3.org/2000/svg" version="1.1" xmlns:xlink="http://www.w3.org/1999/xlink" xmlns:svgjs="http://svgjs.com/svgjs" width="512" height="512" x="0" y="0" viewBox="0 0 511.995 511.995" style="enable-background:new 0 0 512 512" xml:space="preserve" class=""><g><path fill="#417197" d="M406.823 177.381v131.75a15.345 15.345 0 0 1-9.375 14.144c-40.909 17.317-86.309 33.058-136.211 47.223-1.37.381-2.792.577-4.203.577s-2.833-.196-4.203-.577c-49.902-14.165-95.302-29.906-136.211-47.223a15.354 15.354 0 0 1-9.364-14.144V182.048l149.778-2.328z" data-original="#365e7d" class=""></path><path fill="#396483" d="M257.035 179.72v191.356c-1.411 0-2.833-.196-4.203-.577-49.902-14.165-95.302-29.906-136.211-47.223a15.354 15.354 0 0 1-9.364-14.144V182.048z" data-original="#2b4d66" class=""></path><path fill="#396483" d="M406.823 182.532v55.516c-43.031 14.989-88.142 29.247-135.324 42.773a56.256 56.256 0 0 1-31.009 0c-46.42-13.31-90.831-27.32-133.233-42.042v-51.581z" data-original="#2b4d66" class=""></path><path fill="#417197" d="M497.518 140.936c-69.138-27.725-144.479-53.279-226.023-76.662a56.272 56.272 0 0 0-31.003 0C158.95 87.657 83.609 113.211 14.471 140.936c-19.302 7.74-16.889 32.637 2.413 40.377 69.138 27.725 142.066 50.478 223.61 73.86 10.125 2.903 20.878 8.118 31.003 5.214 81.544-23.383 156.884-48.936 226.023-76.662 19.3-7.739 19.3-35.048-.002-42.789z" data-original="#365e7d" class=""></path><path fill="#396483" d="M276.972 258.441c.227.062.443.124.67.185-2.04.587-4.09 1.174-6.14 1.762a56.253 56.253 0 0 1-31.008 0c-81.539-23.385-156.886-48.934-226.022-76.656-19.295-7.747-19.295-35.057 0-42.794a2237.1 2237.1 0 0 1 4.863-1.947c-10.22 11.064-7.387 30.648 8.478 37.004 69.135 27.733 167.62 59.061 249.159 82.446z" data-original="#2b4d66" class=""></path><path fill="#f6b981" d="M379.998 380.396a7.725 7.725 0 0 1-7.726-7.726V226.273l-119.6-56.966a7.727 7.727 0 1 1 6.646-13.951l124.003 59.064a7.725 7.725 0 0 1 4.403 6.975v151.274a7.727 7.727 0 0 1-7.726 7.727z" data-original="#f6e781" class=""></path><path fill="#f6b981" d="M379.997 367.518c-15.526 0-28.113 12.587-28.113 28.113v54.265h56.226v-54.265c.001-15.526-12.586-28.113-28.113-28.113z" data-original="#f6e781" class=""></path><path fill="#f7b43b" d="M389.166 369.068c-11.021 3.793-18.936 14.264-18.936 26.563v54.266h-18.345v-54.266c0-15.515 12.588-28.102 28.102-28.102 3.215.001 6.307.536 9.179 1.539z" data-original="#f1cb86" class=""></path></g></svg>